<?xml version="1.0" standalone="no"?>
<!DOCTYPE svg PUBLIC "-//W3C//DTD SVG 20010904//EN"
 "http://www.w3.org/TR/2001/REC-SVG-20010904/DTD/svg10.dtd">
<svg version="1.0" xmlns="http://www.w3.org/2000/svg"
 width="290.000000pt" height="462.000000pt" viewBox="0 0 290.000000 462.000000"
 preserveAspectRatio="xMidYMid meet">

<g transform="translate(0.000000,462.000000) scale(0.100000,-0.100000)"
fill="#000000" stroke="none">
<path d="M0 2310 l0 -2310 1450 0 1450 0 0 2310 0 2310 -1450 0 -1450 0 0
-2310z m2840 0 l0 -2250 -1390 0 -1390 0 0 2250 0 2250 1390 0 1390 0 0 -2250z"/>
<path d="M413 4314 c-10 -5 -13 -348 -13 -1670 l0 -1664 163 2 162 3 3 152 c1
92 6 153 12 153 6 0 45 -35 88 -78 157 -158 276 -235 437 -281 l60 -18 5 -284
5 -284 150 0 150 0 3 276 2 276 74 37 c384 192 690 574 776 966 6 30 16 72 21
93 26 102 20 489 -11 692 -74 491 -307 876 -625 1038 -150 76 -250 99 -420 95
l-130 -3 -3 -1197 -2 -1198 -23 0 c-71 1 -278 163 -359 283 -116 170 -198 443
-198 656 0 200 62 454 148 611 33 59 104 160 131 184 20 19 21 27 21 278 0
186 -3 258 -11 258 -11 0 -39 -24 -217 -187 -31 -28 -60 -49 -64 -46 -5 2 -8
192 -8 422 0 323 -3 421 -12 429 -13 10 -293 15 -315 6z m1281 -1055 c196 -70
364 -244 433 -448 14 -42 32 -107 39 -146 16 -82 19 -363 4 -444 -5 -31 -16
-92 -24 -136 -45 -256 -143 -465 -276 -589 -67 -61 -164 -113 -225 -118 l-40
-3 -3 953 c-2 888 -1 952 15 952 9 0 44 -10 77 -21z"/>
</g>
</svg>
